<?xml version="1.0" encoding="utf-8"?>
<!-- Generator: Adobe Illustrator 16.0.0, SVG Export Plug-In . SVG Version: 6.00 Build 0)  -->
<!DOCTYPE svg PUBLIC "-//W3C//DTD SVG 1.1//EN" "http://www.w3.org/Graphics/SVG/1.1/DTD/svg11.dtd">
<svg version="1.1" id="Ebene_1" xmlns="http://www.w3.org/2000/svg" xmlns:xlink="http://www.w3.org/1999/xlink" x="0px" y="0px"
	 width="453.5px" height="127.6px" viewBox="0 0 453.5 127.6" enable-background="new 0 0 453.5 127.6" xml:space="preserve">
<g>
	<g>
		<path fill="#B0BEC5" d="M136.5,50.9c0.5,0,0.899,0.2,1.2,0.5c0.3,0.301,0.5,0.7,0.5,1.2s-0.2,0.9-0.5,1.2
			c-1.4,1.2-2.9,2.1-4.601,2.7c-1.7,0.6-3.399,0.899-5.3,0.899c-4.2,0-7.8-1.5-10.7-4.399c-3-3-4.399-6.5-4.399-10.7
			s1.5-7.8,4.399-10.7c2.9-2.899,6.5-4.399,10.7-4.399c1.9,0,3.6,0.3,5.3,0.899c1.7,0.601,3.2,1.5,4.601,2.7
			c0.199,0.2,0.3,0.4,0.399,0.6c0.101,0.2,0.2,0.5,0.2,0.7c0,0.5-0.2,0.9-0.5,1.2s-0.7,0.5-1.2,0.5c-0.399,0-0.8-0.1-1.1-0.4
			c-2.2-1.899-4.8-2.899-7.7-2.899c-3.2,0-6,1.2-8.3,3.5s-3.4,5.1-3.4,8.3c0,3.3,1.101,6,3.4,8.3s5.1,3.5,8.3,3.5
			c1.4,0,2.8-0.3,4.1-0.8c1.301-0.5,2.5-1.2,3.601-2.1C135.8,51,136.1,50.9,136.5,50.9z"/>
		<path fill="#B0BEC5" d="M173.3,42.3c0,4.2-1.5,7.8-4.4,10.7c-3,3-6.5,4.399-10.699,4.399c-4.2,0-7.801-1.5-10.7-4.399
			c-3-3-4.4-6.5-4.4-10.7s1.5-7.8,4.4-10.7c3-3,6.5-4.399,10.7-4.399c4.199,0,7.8,1.5,10.699,4.399
			C171.8,34.5,173.3,38.2,173.3,42.3z M158.1,30.5c-3.2,0-6,1.2-8.3,3.5s-3.5,5.1-3.5,8.3s1.2,6,3.5,8.3s5.1,3.5,8.3,3.5
			s6-1.2,8.3-3.5c2.301-2.3,3.4-5.1,3.4-8.3c0-3.3-1.1-6-3.4-8.3C164.1,31.7,161.4,30.5,158.1,30.5z"/>
		<path fill="#B0BEC5" d="M180.8,55.8c0,0.5-0.2,0.9-0.5,1.2s-0.7,0.5-1.2,0.5s-0.899-0.2-1.2-0.5c-0.3-0.3-0.5-0.7-0.5-1.2v-27
			c0-0.5,0.2-0.9,0.5-1.2c0.301-0.3,0.7-0.5,1.2-0.5s0.9,0.2,1.2,0.5s0.5,0.7,0.5,1.2v1.8c2.7-2.3,5.5-3.5,8.4-3.5
			c3.199,0,6,1.2,8.3,3.5c0.6,0.601,1.1,1.3,1.8,2.101c0.6-0.801,1.2-1.5,1.8-2.101c2.3-2.3,5.101-3.5,8.3-3.5
			c3.2,0,6,1.2,8.301,3.5c2.3,2.3,3.399,5.101,3.399,8.3V55.7c0,0.5-0.2,0.899-0.5,1.199c-0.3,0.301-0.7,0.5-1.2,0.5
			S218.5,57.2,218.2,56.9c-0.301-0.3-0.5-0.699-0.5-1.199V39c0-2.3-0.801-4.3-2.5-6c-1.7-1.7-3.601-2.5-5.9-2.5s-4.3,0.8-6,2.5
			c-1.6,1.6-2.5,3.6-2.5,6v16.8c0,0.5-0.2,0.9-0.5,1.2s-0.7,0.5-1.2,0.5s-0.899-0.2-1.2-0.5c-0.3-0.3-0.5-0.7-0.5-1.2V39
			c0-2.3-0.8-4.3-2.5-6c-1.699-1.7-3.6-2.5-6-2.5c-2.3,0-4.3,0.8-6,2.5c-1.6,1.6-2.5,3.6-2.5,6v16.8H180.8z"/>
		<path fill="#B0BEC5" d="M228.6,68.8c0,0.5-0.2,0.9-0.5,1.2s-0.7,0.5-1.2,0.5S226,70.3,225.7,70c-0.301-0.3-0.5-0.7-0.5-1.2V42.3
			c0-4.2,1.5-7.8,4.399-10.7c3-3,6.5-4.399,10.7-4.399s7.8,1.5,10.7,4.399c2.899,2.9,4.399,6.5,4.399,10.7S253.9,50.1,251,53
			c-3,3-6.5,4.399-10.7,4.399s-7.8-1.5-10.7-4.399l-1.1-1.101v16.9H228.6z M228.6,42.3c0,3.2,1.2,6,3.5,8.3s5.101,3.5,8.3,3.5
			c3.2,0,6-1.2,8.301-3.5c2.3-2.3,3.399-5.1,3.399-8.3c0-3.3-1.1-6-3.399-8.3c-2.301-2.3-5.101-3.5-8.301-3.5
			c-3.199,0-6,1.2-8.3,3.5C229.7,36.3,228.6,39.1,228.6,42.3z"/>
		<path fill="#B0BEC5" d="M283.7,51c0.5,0,0.899,0.2,1.199,0.5c0.301,0.3,0.5,0.7,0.5,1.2S285.3,53.6,285,53.9
			c-2.8,2.4-6.101,3.7-9.9,3.7c-4.2,0-7.8-1.5-10.7-4.399c-3-3-4.399-6.5-4.399-10.7s1.5-7.8,4.399-10.7c2.9-2.9,6.5-4.4,10.7-4.4
			s7.8,1.5,10.7,4.4s4.4,6.5,4.4,10.7c0,0.5-0.2,0.899-0.5,1.2c-0.301,0.3-0.7,0.5-1.2,0.5h-25.2c0.5,2.699,1.7,4.899,3.4,6.699
			c2.3,2.301,5.1,3.5,8.3,3.5c1.5,0,2.899-0.199,4.1-0.699c1.3-0.5,2.4-1.2,3.5-2.101C282.9,51.1,283.3,51,283.7,51z M286.7,40.7
			c-0.5-2.7-1.601-4.9-3.4-6.7c-2.3-2.3-5.1-3.5-8.3-3.5s-6,1.2-8.3,3.5c-1.7,1.7-2.9,4-3.4,6.7H286.7z"/>
		<path fill="#B0BEC5" d="M308.8,54.1c0.5,0,0.899,0.2,1.2,0.5c0.3,0.3,0.5,0.7,0.5,1.2s-0.2,0.9-0.5,1.2
			c-0.301,0.3-0.7,0.5-1.2,0.5c-7.101,0-10.7-3.601-10.7-10.7V30.5h-2.8c-0.5,0-0.9-0.2-1.2-0.5s-0.5-0.7-0.5-1.2s0.2-0.9,0.5-1.2
			s0.7-0.5,1.2-0.5h2.8V15.9c0-0.5,0.2-0.899,0.5-1.199c0.3-0.301,0.7-0.5,1.2-0.5s0.899,0.199,1.2,0.5c0.3,0.3,0.5,0.699,0.5,1.199
			V27.2h5.1c0.5,0,0.9,0.199,1.2,0.5c0.3,0.3,0.5,0.699,0.5,1.199s-0.2,0.9-0.5,1.2s-0.7,0.5-1.2,0.5h-5.1v16.3
			C301.5,51.7,303.9,54.1,308.8,54.1z"/>
		<path fill="#B0BEC5" d="M336.3,51c0.5,0,0.899,0.2,1.2,0.5c0.3,0.3,0.5,0.7,0.5,1.2S337.9,53.6,337.6,53.9
			c-2.8,2.4-6.1,3.7-9.9,3.7c-4.199,0-7.8-1.5-10.699-4.399c-3-3-4.4-6.5-4.4-10.7s1.5-7.8,4.4-10.7c2.899-2.9,6.5-4.4,10.699-4.4
			c4.2,0,7.801,1.5,10.7,4.4c3,3,4.4,6.5,4.4,10.7c0,0.5-0.2,0.899-0.5,1.2c-0.3,0.3-0.7,0.5-1.2,0.5h-25.2
			c0.5,2.699,1.7,4.899,3.4,6.699c2.3,2.301,5.1,3.5,8.3,3.5c1.5,0,2.8-0.199,4.1-0.699s2.4-1.2,3.5-2.101
			C335.6,51.1,335.9,51,336.3,51z M339.4,40.7c-0.5-2.7-1.6-4.9-3.399-6.7c-2.301-2.3-5.101-3.5-8.301-3.5c-3.199,0-6,1.2-8.3,3.5
			c-1.7,1.7-2.899,4-3.399,6.7H339.4z"/>
		<path fill="#B0BEC5" d="M347.199,28.9c0-0.5,0.2-0.899,0.5-1.199c0.301-0.301,0.7-0.5,1.2-0.5s0.9,0.199,1.2,0.5
			c0.3,0.3,0.5,0.699,0.5,1.199V32c3.3-3.2,6.9-4.8,10.7-4.8c3.899,0,7.2,1.399,9.899,4.1C374,34,375.3,37.4,375.3,41.2v14.6
			c0,0.5-0.2,0.9-0.5,1.2s-0.7,0.5-1.2,0.5s-0.9-0.2-1.2-0.5s-0.5-0.7-0.5-1.2V41.2c0-3-1-5.5-3.1-7.5
			c-2.101-2.101-4.601-3.2-7.5-3.2c-2.9,0-5.4,1.1-7.601,3.2c-2.1,2.1-3.1,4.6-3.1,7.5v14.6c0,0.5-0.2,0.9-0.5,1.2s-0.7,0.5-1.2,0.5
			s-0.899-0.2-1.2-0.5c-0.3-0.3-0.5-0.7-0.5-1.2V28.9L347.199,28.9z"/>
		<path fill="#B0BEC5" d="M403.5,50.9c0.5,0,0.899,0.2,1.199,0.5c0.301,0.301,0.5,0.7,0.5,1.2s-0.199,0.9-0.5,1.2
			c-1.399,1.2-2.899,2.1-4.6,2.7c-1.7,0.6-3.4,0.899-5.3,0.899c-4.2,0-7.8-1.5-10.7-4.399c-3-3-4.4-6.5-4.4-10.7s1.5-7.8,4.4-10.7
			c2.9-2.899,6.5-4.399,10.7-4.399c1.899,0,3.6,0.3,5.3,0.899c1.7,0.601,3.2,1.5,4.6,2.7c0.2,0.2,0.301,0.4,0.4,0.6
			c0.1,0.2,0.2,0.5,0.2,0.7c0,0.5-0.2,0.9-0.5,1.2s-0.7,0.5-1.2,0.5c-0.4,0-0.8-0.1-1.1-0.4c-2.2-1.899-4.801-2.899-7.7-2.899
			c-3.2,0-6,1.2-8.3,3.5c-2.301,2.3-3.4,5.1-3.4,8.3c0,3.3,1.1,6,3.4,8.3c2.3,2.3,5.1,3.5,8.3,3.5c1.399,0,2.8-0.3,4.1-0.8
			s2.5-1.2,3.601-2.1C402.8,51,403.1,50.9,403.5,50.9z"/>
		<path fill="#B0BEC5" d="M433.699,51c0.5,0,0.9,0.2,1.2,0.5s0.5,0.7,0.5,1.2S435.3,53.6,435,53.9c-2.801,2.4-6.101,3.7-9.9,3.7
			c-4.2,0-7.8-1.5-10.7-4.399c-3-3-4.399-6.5-4.399-10.7s1.5-7.8,4.399-10.7c3-3,6.5-4.4,10.7-4.4s7.8,1.5,10.7,4.4
			c3,3,4.399,6.5,4.399,10.7c0,0.5-0.199,0.899-0.5,1.2c-0.3,0.3-0.699,0.5-1.199,0.5h-25.2c0.5,2.699,1.7,4.899,3.399,6.699
			C419,53.2,421.8,54.4,425,54.4c1.5,0,2.8-0.199,4.1-0.699s2.4-1.2,3.5-2.101C433,51.1,433.3,51,433.699,51z M436.8,40.7
			c-0.5-2.7-1.601-4.9-3.4-6.7c-2.3-2.3-5.1-3.5-8.3-3.5s-6,1.2-8.3,3.5c-1.7,1.7-2.9,4-3.4,6.7H436.8z"/>
		<path fill="#B0BEC5" d="M117.9,97.2L117.9,97.2c-0.8-0.301-1.5-0.601-2.1-0.9s-1-0.6-1.3-0.9c-1.2-1.199-1.8-2.699-1.8-4.399
			s0.6-3.2,1.899-4.5c2.601-2.601,6-4,10.2-4c2.2,0,4.3,0.5,6.3,1.399c2,0.9,3.7,2.301,5.3,4c0.2,0.301,0.301,0.601,0.301,0.9
			c0,0.5-0.2,0.9-0.5,1.2c-0.301,0.3-0.7,0.5-1.2,0.5s-0.8-0.101-1.101-0.4l-0.8-0.8c-2.3-2.3-5.1-3.5-8.3-3.5c-3.3,0-5.9,1-7.9,3.1
			c-0.5,0.601-0.8,1.4-0.8,2.301c0,0.5,0.2,1,0.5,1.399c0.3,0.4,0.7,0.7,1.3,0.9l13.801,4.6l0,0c0.8,0.3,1.5,0.601,2.1,0.9
			s1,0.6,1.3,0.899c1.2,1.2,1.8,2.7,1.8,4.4s-0.6,3.2-1.899,4.5c-2.601,2.6-6,4-10.101,4c-4.5,0-8.399-1.8-11.6-5.4
			c-0.2-0.3-0.3-0.6-0.3-1c0-0.5,0.2-0.899,0.5-1.199c0.3-0.301,0.7-0.5,1.2-0.5c0.399,0,0.8,0.1,1.1,0.399l0.8,0.8
			c2.3,2.301,5.101,3.5,8.3,3.5c3.2,0,5.9-1,7.801-3.1c0.6-0.6,0.8-1.4,0.8-2.3c-0.101-1.2-0.7-1.9-1.8-2.3L117.9,97.2z"/>
		<path fill="#B0BEC5" d="M165.2,106.3c0.5,0,0.899,0.2,1.199,0.5c0.301,0.3,0.5,0.7,0.5,1.2s-0.199,0.899-0.5,1.2
			c-1.399,1.199-2.899,2.1-4.6,2.699c-1.7,0.601-3.4,0.9-5.3,0.9c-4.2,0-7.8-1.5-10.7-4.4c-2.9-2.899-4.4-6.5-4.4-10.699
			c0-4.2,1.5-7.801,4.4-10.7c2.9-2.9,6.5-4.4,10.7-4.4c1.899,0,3.6,0.3,5.3,0.9c1.7,0.6,3.2,1.5,4.6,2.7
			c0.2,0.199,0.301,0.399,0.4,0.6s0.2,0.5,0.2,0.7c0,0.5-0.2,0.899-0.5,1.2c-0.3,0.3-0.7,0.5-1.2,0.5c-0.4,0-0.8-0.101-1.1-0.4
			c-2.2-1.9-4.801-2.9-7.7-2.9c-3.2,0-6,1.2-8.3,3.5c-2.301,2.301-3.4,5.101-3.4,8.301c0,3.199,1.1,6,3.4,8.3
			c2.3,2.3,5.1,3.5,8.3,3.5c1.399,0,2.8-0.3,4.1-0.8s2.5-1.2,3.601-2.101C164.5,106.5,164.8,106.3,165.2,106.3z"/>
		<path fill="#B0BEC5" d="M202,97.8c0,4.2-1.5,7.8-4.4,10.7c-2.899,2.899-6.5,4.399-10.7,4.399c-4.199,0-7.8-1.5-10.699-4.399
			c-3-3-4.4-6.5-4.4-10.7s1.5-7.8,4.4-10.7c3-3,6.5-4.399,10.699-4.399c4.2,0,7.801,1.5,10.7,4.399C200.5,90,202,93.6,202,97.8z
			 M186.8,86c-3.2,0-6,1.2-8.3,3.5s-3.5,5.1-3.5,8.3s1.2,6,3.5,8.3s5.1,3.5,8.3,3.5s6-1.2,8.3-3.5s3.4-5.1,3.4-8.3s-1.101-6-3.4-8.3
			C192.8,87.1,190.1,86,186.8,86z"/>
		<path fill="#B0BEC5" d="M234.4,111.2c0,0.5-0.199,0.899-0.5,1.199c-0.3,0.301-0.699,0.5-1.199,0.5s-0.9-0.199-1.2-0.5
			c-0.3-0.3-0.5-0.699-0.5-1.199V108.1c-3.3,3.2-6.9,4.8-10.7,4.8s-7.2-1.399-9.9-4.1c-2.699-2.7-4.1-6.1-4.1-10V84.3
			c0-0.5,0.2-0.9,0.5-1.2s0.7-0.5,1.2-0.5s0.899,0.2,1.2,0.5c0.3,0.3,0.5,0.7,0.5,1.2v14.6c0,3,1,5.5,3.1,7.5
			c2.1,2.101,4.7,3.101,7.6,3.101c2.9,0,5.4-1,7.5-3.101C230,104.3,231,101.8,231,98.9V84.3c0-0.5,0.2-0.9,0.5-1.2s0.7-0.5,1.2-0.5
			s0.899,0.2,1.199,0.5c0.301,0.3,0.5,0.7,0.5,1.2V111.2L234.4,111.2z"/>
		<path fill="#B0BEC5" d="M254,109.6c0.5,0,0.899,0.2,1.2,0.5c0.3,0.3,0.5,0.7,0.5,1.2s-0.2,0.9-0.5,1.2c-0.301,0.3-0.7,0.5-1.2,0.5
			c-7.101,0-10.7-3.601-10.7-10.7V86h-2.8c-0.5,0-0.9-0.2-1.2-0.5s-0.5-0.7-0.5-1.2s0.2-0.9,0.5-1.2s0.7-0.5,1.2-0.5h2.8V71.3
			c0-0.5,0.2-0.9,0.5-1.2s0.7-0.5,1.2-0.5s0.899,0.2,1.2,0.5c0.3,0.3,0.5,0.7,0.5,1.2v11.3h5.1c0.5,0,0.9,0.2,1.2,0.5
			s0.5,0.7,0.5,1.2s-0.2,0.9-0.5,1.2s-0.7,0.5-1.2,0.5h-5.1v16.3C246.7,107.1,249.2,109.6,254,109.6z"/>
	</g>
	<g>
		<polygon fill="#B0BEC5" points="27.6,73.3 50.3,77.5 54.4,100.2 77.9,49.9 		"/>
		<g>
			<path fill="#B0BEC5" d="M56.6,113.4c-0.6,0-1.3,0-1.899,0C30.9,112.4,12.3,92.1,13.4,68.3C14.4,44.5,34.7,25.9,58.5,27
				c7.7,0.3,15.2,2.7,21.7,6.899c0.8,0.5,1,1.601,0.5,2.4s-1.601,1-2.4,0.5c-5.9-3.8-12.8-6-19.9-6.4C36.5,29.5,17.9,46.5,16.9,68.4
				c-1,21.9,16.101,40.5,38,41.5c21.9,1,40.5-16.1,41.5-38c0.4-8.6-2-16.899-6.8-24.1c-0.5-0.8-0.3-1.9,0.5-2.4s1.9-0.3,2.4,0.5
				C97.8,53.7,100.3,62.7,99.9,72.1C98.8,95.2,79.6,113.4,56.6,113.4z"/>
		</g>
	</g>
</g>
</svg>
